# xmcd
#
# Track frame offsets:
#	150
#	16179
#	31689
#	49192
#	63010
#	83782
#	102092
#	116420
#	133113
#	152970
#	171852
#
# Disc length: 2941 seconds
#
# Revision: 1
# Processed by: cddbd v1.5.2PL0 Copyright (c) Steve Scherf et al.
# Submitted via: audiograbber 1.83.01
#
DISCID=7f0b7b0b
DTITLE=Truck Stop  - On The Run  2007
DYEAR=2007
DGENRE=Pop
TTITLE0=My Redneck Heart
TTITLE1=This Is Love
TTITLE2=Easier This Way
TTITLE3=My Only Memory
TTITLE4=Starin Down the Barrel
TTITLE5=Fly Away
TTITLE6=Nobody Knows My Name
TTITLE7=Unsigned Letter
TTITLE8=Look Out Texas
TTITLE9=I Know How You Feel
TTITLE10=One For the Road  This Is Love (reprise)
EXTD=
EXTT0=
EXTT1=
EXTT2=
EXTT3=
EXTT4=
EXTT5=
EXTT6=
EXTT7=
EXTT8=
EXTT9=
EXTT10=
PLAYORDER=
